<?xml version="1.0" encoding="UTF-8" standalone="no"?>
<!DOCTYPE svg PUBLIC "-//W3C//DTD SVG 1.1//EN" "http://www.w3.org/Graphics/SVG/1.1/DTD/svg11.dtd">
<svg width="100%" height="100%" viewBox="0 0 687 180" version="1.1" xmlns="http://www.w3.org/2000/svg" xmlns:xlink="http://www.w3.org/1999/xlink" xml:space="preserve" xmlns:serif="http://www.serif.com/" style="fill-rule:evenodd;clip-rule:evenodd;stroke-linejoin:round;stroke-miterlimit:2;">
    <g transform="matrix(1,0,0,1,-170,-2)">
        <g>
            <g transform="matrix(2.66667,0,0,2.66667,-0.4804,-1560.42)">
                <path d="M67.025,604.417L64.952,603.279C64.624,603.099 64.223,603.336 64.223,603.71L64.223,636.71C64.223,636.89 64.321,637.055 64.478,637.141L66.552,638.28C66.88,638.459 67.281,638.222 67.281,637.848L67.281,604.848C67.281,604.669 67.183,604.503 67.025,604.417" style="fill:rgb(6,38,77);fill-rule:nonzero;"/>
            </g>
            <g transform="matrix(2.66667,0,0,2.66667,-0.4804,-1558.44)">
                <path d="M75.825,608.677L74.85,608.142C74.724,608.072 74.645,607.939 74.645,607.795L74.645,599.845C74.645,599.665 74.547,599.5 74.39,599.414L72.316,598.276C71.988,598.096 71.587,598.333 71.587,598.707L71.587,631.707C71.587,631.886 71.685,632.052 71.843,632.138L72.818,632.673C72.944,632.743 73.023,632.876 73.023,633.021L73.023,640.97C73.023,641.15 73.121,641.315 73.278,641.401L75.352,642.54C75.68,642.72 76.081,642.482 76.081,642.108L76.081,609.109C76.081,608.929 75.983,608.763 75.825,608.677" style="fill:rgb(6,38,77);fill-rule:nonzero;"/>
            </g>
            <g transform="matrix(2.66667,0,0,2.66667,-0.4804,-1556.4)">
                <path d="M84.625,612.915L83.651,612.38C83.524,612.311 83.445,612.178 83.445,612.033L83.445,604.083C83.445,603.904 83.347,603.739 83.19,603.652L82.215,603.117C82.088,603.047 82.009,602.914 82.009,602.77L82.009,594.843C82.009,594.664 81.912,594.498 81.754,594.412L79.68,593.274C79.352,593.094 78.952,593.331 78.952,593.705L78.952,626.705C78.952,626.885 79.049,627.05 79.207,627.136L80.182,627.671C80.309,627.741 80.387,627.874 80.387,628.019L80.387,635.945C80.387,636.124 80.485,636.29 80.643,636.376L81.618,636.912C81.744,636.981 81.823,637.114 81.823,637.259L81.823,645.208C81.823,645.388 81.921,645.553 82.078,645.64L84.152,646.778C84.48,646.958 84.881,646.72 84.881,646.346L84.881,613.347C84.881,613.167 84.783,613.002 84.625,612.915" style="fill:rgb(6,38,77);fill-rule:nonzero;"/>
            </g>
            <g transform="matrix(2.66667,0,0,2.66667,-0.4804,-1565.79)">
                <path d="M100.79,617.177L99.61,616.529L99.61,608.369C99.61,608.189 99.512,608.024 99.354,607.937L98.379,607.402C98.252,607.332 98.174,607.199 98.174,607.055L98.174,599.098C98.174,598.918 98.076,598.753 97.919,598.666L96.943,598.131C96.817,598.062 96.738,597.929 96.738,597.784L96.738,589.842C96.738,589.662 96.64,589.497 96.483,589.411L94.409,588.272C94.081,588.092 93.68,588.33 93.68,588.704L93.68,621.034C93.68,621.266 93.434,621.414 93.229,621.307L92.534,620.942C92.357,620.849 92.245,620.665 92.245,620.464L92.245,612.607C92.245,612.427 92.147,612.262 91.99,612.175L91.015,611.64C90.888,611.57 90.809,611.437 90.809,611.293L90.809,603.366C90.809,603.187 90.712,603.022 90.554,602.935L89.579,602.4C89.452,602.33 89.374,602.197 89.374,602.053L89.374,594.095C89.374,593.916 89.276,593.75 89.118,593.664L87.045,592.526C86.717,592.346 86.316,592.583 86.316,592.957L86.316,625.957C86.316,626.137 86.414,626.302 86.571,626.388L87.546,626.924C87.673,626.993 87.752,627.126 87.752,627.271L87.752,635.228C87.752,635.408 87.85,635.573 88.007,635.659L88.982,636.195C89.108,636.264 89.187,636.397 89.187,636.542L89.187,644.468C89.187,644.648 89.285,644.813 89.443,644.9L90.418,645.435C90.544,645.504 90.623,645.637 90.623,645.782L90.623,653.731C90.623,653.911 90.721,654.076 90.878,654.163L92.952,655.301C93.28,655.481 93.681,655.244 93.681,654.87L93.681,622.52C93.681,622.287 93.93,622.139 94.135,622.25L94.911,622.67C95.037,622.74 95.116,622.873 95.116,623.017L95.116,630.959C95.116,631.139 95.214,631.304 95.371,631.391L96.346,631.926C96.473,631.995 96.552,632.128 96.552,632.273L96.552,640.23C96.552,640.41 96.65,640.575 96.807,640.662L97.782,641.197C97.909,641.266 97.987,641.399 97.987,641.544L97.987,649.47C97.987,649.65 98.085,649.815 98.243,649.902L100.316,651.04C100.644,651.22 101.045,650.982 101.045,650.608L101.045,617.609C101.045,617.429 100.948,617.264 100.79,617.177" style="fill:rgb(6,38,77);fill-rule:nonzero;"/>
            </g>
            <g transform="matrix(2.66667,0,0,2.66667,-0.4804,-1575.11)">
                <path d="M108.154,616.435L107.179,615.9C107.052,615.831 106.974,615.698 106.974,615.553L106.974,607.596C106.974,607.416 106.876,607.251 106.718,607.164L105.743,606.629C105.617,606.56 105.538,606.427 105.538,606.282L105.538,598.34C105.538,598.161 105.44,597.995 105.283,597.909L103.209,596.771C102.881,596.591 102.48,596.828 102.48,597.202L102.48,630.202C102.48,630.382 102.578,630.547 102.735,630.633L103.711,631.168C103.837,631.238 103.916,631.371 103.916,631.515L103.916,639.457C103.916,639.637 104.014,639.802 104.171,639.889L105.146,640.424C105.273,640.493 105.352,640.626 105.352,640.771L105.352,648.728C105.352,648.908 105.45,649.073 105.607,649.16L107.681,650.298C108.009,650.478 108.41,650.241 108.41,649.866L108.41,616.867C108.41,616.687 108.312,616.522 108.154,616.435" style="fill:rgb(6,38,77);fill-rule:nonzero;"/>
            </g>
            <g transform="matrix(2.66667,0,0,2.66667,-0.4804,-1573.16)">
                <path d="M115.519,611.434L114.543,610.898C114.417,610.829 114.338,610.696 114.338,610.551L114.338,602.609C114.338,602.43 114.24,602.264 114.083,602.178L112.009,601.04C111.681,600.86 111.28,601.097 111.28,601.471L111.28,634.471C111.28,634.651 111.378,634.816 111.535,634.902L112.511,635.437C112.637,635.507 112.716,635.64 112.716,635.785L112.716,643.727C112.716,643.906 112.814,644.072 112.971,644.158L115.045,645.296C115.373,645.476 115.774,645.239 115.774,644.865L115.774,611.865C115.774,611.685 115.676,611.52 115.519,611.434" style="fill:rgb(6,38,77);fill-rule:nonzero;"/>
            </g>
            <g transform="matrix(2.66667,0,0,2.66667,-0.4804,-1571.16)">
                <path d="M122.883,606.431L120.809,605.293C120.481,605.113 120.08,605.35 120.08,605.724L120.08,638.724C120.08,638.904 120.178,639.069 120.336,639.155L122.409,640.294C122.737,640.474 123.138,640.236 123.138,639.862L123.138,606.862C123.138,606.683 123.04,606.518 122.883,606.431" style="fill:rgb(6,38,77);fill-rule:nonzero;"/>
            </g>
            <g transform="matrix(2.66667,0,0,2.66667,-0.4804,-1624.17)">
                <path d="M157.225,642.067C158.538,642.067 159.885,641.833 161.114,641.306C161.288,641.232 161.337,641.008 161.21,640.867L159.502,638.97C159.398,638.855 159.41,638.676 159.528,638.576L162.387,636.135C162.501,636.038 162.671,636.049 162.771,636.16L164.549,638.131C164.67,638.264 164.883,638.249 164.983,638.101C166.065,636.499 166.74,634.431 166.74,631.831C166.74,624.994 162.022,621.595 157.225,621.595C152.466,621.595 147.748,624.994 147.748,631.831C147.748,638.668 152.466,642.067 157.225,642.067ZM157.225,617.077C164.661,617.077 171.658,622.555 171.658,631.831C171.658,635.927 170.288,639.3 168.142,641.764C168.05,641.869 168.05,642.025 168.143,642.129L171.15,645.495C171.254,645.61 171.241,645.788 171.123,645.888L168.302,648.291C168.189,648.388 168.02,648.377 167.92,648.268L164.769,644.828C164.683,644.733 164.543,644.712 164.431,644.774C162.273,645.983 159.749,646.625 157.225,646.625C149.788,646.625 142.831,641.147 142.831,631.831C142.831,622.555 149.788,617.077 157.225,617.077" style="fill:rgb(6,38,77);fill-rule:nonzero;"/>
            </g>
            <g transform="matrix(2.66667,0,0,2.66667,-0.4804,-1628.87)">
                <path d="M175.787,633.634C175.787,624.398 182.704,618.84 190.06,618.84C197.136,618.84 201.39,622.936 202.748,627.786C202.787,627.926 202.707,628.073 202.569,628.119L198.576,629.462C198.425,629.513 198.265,629.424 198.223,629.271C197.309,625.966 194.686,623.359 190.06,623.359C185.383,623.359 180.705,626.757 180.705,633.634C180.705,640.271 185.263,643.79 190.1,643.79C194.727,643.79 197.425,640.917 198.453,637.818C198.501,637.672 198.656,637.591 198.802,637.639L202.684,638.91C202.824,638.955 202.905,639.104 202.864,639.246C201.502,643.951 197.209,648.388 190.1,648.388C182.464,648.388 175.787,642.87 175.787,633.634" style="fill:rgb(6,38,77);fill-rule:nonzero;"/>
            </g>
            <g transform="matrix(2.66667,0,0,2.66667,-0.4804,-1628.87)">
                <path d="M208.07,647.512L208.07,619.716C208.07,619.564 208.193,619.44 208.346,619.44L212.672,619.44C212.824,619.44 212.948,619.564 212.948,619.716L212.948,647.512C212.948,647.665 212.824,647.788 212.672,647.788L208.346,647.788C208.193,647.788 208.07,647.665 208.07,647.512" style="fill:rgb(6,38,77);fill-rule:nonzero;"/>
            </g>
            <g transform="matrix(2.66667,0,0,2.66667,-0.4804,-1628.87)">
                <path d="M238.457,623.682L238.457,619.716C238.457,619.564 238.334,619.44 238.181,619.44L219.508,619.44C219.356,619.44 219.232,619.564 219.232,619.716L219.232,647.512C219.232,647.665 219.356,647.788 219.508,647.788L223.754,647.788C223.906,647.788 224.03,647.665 224.03,647.512L224.03,636.629C224.03,636.476 224.153,636.353 224.306,636.353L234.606,636.353C234.758,636.353 234.881,636.229 234.881,636.077L234.881,632.19C234.881,632.038 234.758,631.915 234.606,631.915L224.306,631.915C224.153,631.915 224.03,631.791 224.03,631.639L224.03,624.234C224.03,624.082 224.153,623.958 224.306,623.958L238.181,623.958C238.334,623.958 238.457,623.835 238.457,623.682" style="fill:rgb(6,38,77);fill-rule:nonzero;"/>
            </g>
            <g transform="matrix(2.66667,0,0,2.66667,-0.4804,-1496.94)">
                <path d="M321.277,610.482C321.277,610.856 321.21,611.184 321.078,611.467C320.945,611.751 320.762,611.989 320.529,612.183C320.295,612.377 320.024,612.522 319.716,612.619C319.407,612.716 319.077,612.764 318.726,612.764C318.381,612.764 318.056,612.711 317.751,612.603C317.446,612.495 317.181,612.341 316.955,612.14C316.729,611.939 316.546,611.697 316.406,611.413C316.302,611.203 316.234,610.973 316.203,610.724C316.186,610.584 316.3,610.461 316.441,610.461L317.323,610.461C317.439,610.461 317.535,610.545 317.557,610.659C317.61,610.929 317.727,611.141 317.907,611.295C318.13,611.485 318.406,611.581 318.736,611.581C319.074,611.581 319.355,611.483 319.581,611.29C319.807,611.096 319.92,610.82 319.92,610.461C319.92,610.267 319.884,610.099 319.813,609.955C319.741,609.811 319.646,609.695 319.528,609.605C319.409,609.515 319.269,609.447 319.108,609.401C318.946,609.354 318.78,609.331 318.607,609.331L318.285,609.331C318.154,609.331 318.047,609.224 318.047,609.093L318.047,608.395C318.047,608.264 318.154,608.157 318.285,608.157L318.607,608.157C318.973,608.157 319.257,608.078 319.458,607.92C319.658,607.762 319.759,607.508 319.759,607.156C319.759,606.883 319.664,606.652 319.474,606.462C319.284,606.272 319.038,606.176 318.736,606.176C318.399,606.176 318.125,606.259 317.913,606.424C317.743,606.556 317.64,606.745 317.601,606.992C317.583,607.107 317.479,607.188 317.363,607.188L316.483,607.188C316.342,607.188 316.229,607.066 316.246,606.926C316.275,606.68 316.339,606.455 316.438,606.252C316.571,605.979 316.75,605.75 316.976,605.563C317.202,605.376 317.466,605.235 317.767,605.138C318.069,605.041 318.392,604.992 318.736,604.992C319.074,604.992 319.388,605.043 319.678,605.143C319.969,605.243 320.222,605.387 320.437,605.574C320.653,605.76 320.821,605.985 320.943,606.246C321.065,606.508 321.126,606.801 321.126,607.124C321.126,607.468 321.033,607.791 320.846,608.092C320.741,608.262 320.611,608.403 320.456,608.516C320.315,608.619 320.321,608.823 320.468,608.917C320.502,608.939 320.535,608.962 320.566,608.986C320.717,609.101 320.846,609.237 320.954,609.395C321.062,609.553 321.142,609.725 321.196,609.912C321.25,610.099 321.277,610.288 321.277,610.482" style="fill:rgb(6,38,77);fill-rule:nonzero;"/>
            </g>
            <g transform="matrix(2.66667,0,0,2.66667,-0.4804,-1465.55)">
                <path d="M150.066,609.867C153.433,609.867 156.26,607.605 156.26,603.031C156.26,598.43 153.484,596.117 150.118,596.117L146.34,596.117L146.34,609.867L150.066,609.867ZM143.821,612.103L143.821,593.881L150.195,593.881C154.821,593.881 158.856,597.042 158.856,603.031C158.856,608.993 154.77,612.103 150.143,612.103L143.821,612.103Z" style="fill:rgb(6,38,77);fill-rule:nonzero;"/>
            </g>
            <g transform="matrix(2.66667,0,0,2.66667,-0.4804,-1467.06)">
                <path d="M161.298,600.306L163.688,600.306L163.688,612.668L161.298,612.668L161.298,600.306ZM162.48,593.881C163.457,593.881 164.228,594.652 164.228,595.628C164.228,596.579 163.457,597.35 162.48,597.35C161.529,597.35 160.758,596.579 160.758,595.628C160.758,594.652 161.529,593.881 162.48,593.881" style="fill:rgb(6,38,77);fill-rule:nonzero;"/>
            </g>
            <g transform="matrix(2.66667,0,0,2.66667,-0.4804,-1436.49)">
                <path d="M175.716,594.627C175.716,592.236 174.277,590.669 172.195,590.669C170.062,590.669 168.623,592.236 168.623,594.627C168.623,597.042 170.011,598.584 172.195,598.584C174.277,598.584 175.716,597.017 175.716,594.627ZM168.469,601.334C168.648,603.056 169.959,604.367 171.836,604.367C174.431,604.367 175.613,603.031 175.613,600.358L175.613,598.584C175.022,599.715 173.686,600.615 171.836,600.615C168.546,600.615 166.156,598.122 166.156,594.627C166.156,591.285 168.443,588.613 171.836,588.613C173.737,588.613 175.022,589.332 175.639,590.566L175.639,588.844L178.029,588.844L178.029,600.281C178.029,603.416 176.487,606.474 171.836,606.474C168.751,606.474 166.438,604.521 166.13,601.874L168.469,601.334Z" style="fill:rgb(6,38,77);fill-rule:nonzero;"/>
            </g>
            <g transform="matrix(2.66667,0,0,2.66667,-0.4804,-1467.06)">
                <path d="M181.114,600.306L183.504,600.306L183.504,612.668L181.114,612.668L181.114,600.306ZM182.296,593.881C183.273,593.881 184.043,594.652 184.043,595.628C184.043,596.579 183.273,597.35 182.296,597.35C181.345,597.35 180.574,596.579 180.574,595.628C180.574,594.652 181.345,593.881 182.296,593.881" style="fill:rgb(6,38,77);fill-rule:nonzero;"/>
            </g>
            <g transform="matrix(2.66667,0,0,2.66667,-0.4804,-1460)">
                <path d="M190.083,597.66L192.756,597.66L192.756,599.844L190.083,599.844L190.083,606.269C190.083,607.4 190.546,607.966 191.805,607.966C192.114,607.966 192.551,607.914 192.756,607.863L192.756,609.919C192.551,609.996 191.934,610.15 191.111,610.15C189.004,610.15 187.667,608.866 187.667,606.629L187.667,599.844L185.303,599.844L185.303,597.66L185.971,597.66C187.308,597.66 187.873,596.837 187.873,595.758L187.873,593.753L190.083,593.753L190.083,597.66Z" style="fill:rgb(6,38,77);fill-rule:nonzero;"/>
            </g>
            <g transform="matrix(2.66667,0,0,2.66667,-0.4804,-1449.93)">
                <path d="M202.472,600.95L202.472,600.384L198.693,600.95C197.665,601.104 196.894,601.695 196.894,602.8C196.894,603.725 197.665,604.599 198.899,604.599C200.878,604.599 202.472,603.648 202.472,600.95ZM198.179,599.176L201.521,598.688C202.266,598.585 202.472,598.2 202.472,597.763C202.472,596.555 201.675,595.552 199.798,595.552C198.102,595.552 197.151,596.606 196.997,598.045L194.684,597.506C194.941,595.141 197.074,593.496 199.747,593.496C203.448,593.496 204.887,595.604 204.887,598.02L204.887,604.214C204.887,605.293 204.99,605.936 205.041,606.244L202.677,606.244C202.625,605.936 202.549,605.473 202.549,604.573C202.009,605.447 200.775,606.629 198.565,606.629C196.046,606.629 194.427,604.882 194.427,602.928C194.427,600.718 196.046,599.485 198.179,599.176" style="fill:rgb(6,38,77);fill-rule:nonzero;"/>
            </g>
            <g transform="matrix(2.66667,0,0,2.66667,-0.4804,-1466.58)">
                <rect x="207.869" y="593.881" width="2.416" height="18.608" style="fill:rgb(6,38,77);"/>
            </g>
            <g transform="matrix(2.66667,0,0,2.66667,-0.4804,-1465.55)">
                <path d="M225.937,602.388C227.993,602.388 229.381,601.18 229.381,599.304C229.381,597.376 227.993,596.143 225.937,596.143L222.082,596.143L222.082,602.388L225.937,602.388ZM224.806,604.65L222.082,604.65L222.082,612.103L219.538,612.103L219.538,593.881L226.4,593.881C229.844,593.881 231.977,596.297 231.977,599.304C231.977,601.926 230.306,603.956 227.556,604.47L231.9,612.103L228.97,612.103L224.806,604.65Z" style="fill:rgb(6,38,77);fill-rule:nonzero;"/>
            </g>
            <g transform="matrix(2.66667,0,0,2.66667,-0.4804,-1449.93)">
                <path d="M242.232,598.791C242.181,597.017 241.024,595.63 238.839,595.63C236.809,595.63 235.576,597.197 235.473,598.791L242.232,598.791ZM244.674,602.723C243.98,604.907 242.001,606.629 239.122,606.629C235.807,606.629 232.903,604.214 232.903,600.024C232.903,596.144 235.704,593.496 238.814,593.496C242.618,593.496 244.751,596.118 244.751,599.973C244.751,600.282 244.725,600.59 244.699,600.744L235.396,600.744C235.447,602.954 237.041,604.496 239.122,604.496C241.127,604.496 242.129,603.391 242.592,602.003L244.674,602.723Z" style="fill:rgb(6,38,77);fill-rule:nonzero;"/>
            </g>
            <g transform="matrix(2.66667,0,0,2.66667,-0.4804,-1449.93)">
                <path d="M248.092,602.26C248.246,603.545 249.223,604.573 250.971,604.573C252.333,604.573 253.078,603.802 253.078,602.929C253.078,602.157 252.513,601.566 251.485,601.335L249.377,600.872C247.45,600.461 246.293,599.15 246.293,597.403C246.293,595.295 248.272,593.496 250.688,593.496C254.081,593.496 255.134,595.707 255.391,596.812L253.258,597.609C253.155,596.966 252.641,595.552 250.688,595.552C249.454,595.552 248.632,596.349 248.632,597.197C248.632,597.943 249.095,598.482 250.046,598.688L252.05,599.125C254.286,599.613 255.469,600.975 255.469,602.8C255.469,604.548 254.003,606.629 250.945,606.629C247.553,606.629 246.113,604.445 245.908,603.031L248.092,602.26Z" style="fill:rgb(6,38,77);fill-rule:nonzero;"/>
            </g>
            <g transform="matrix(2.66667,0,0,2.66667,-0.4804,-1449.93)">
                <path d="M266.109,598.791C266.058,597.017 264.901,595.63 262.716,595.63C260.686,595.63 259.453,597.197 259.35,598.791L266.109,598.791ZM268.551,602.723C267.857,604.907 265.878,606.629 262.999,606.629C259.684,606.629 256.78,604.214 256.78,600.024C256.78,596.144 259.581,593.496 262.691,593.496C266.495,593.496 268.628,596.118 268.628,599.973C268.628,600.282 268.602,600.59 268.577,600.744L259.273,600.744C259.324,602.954 260.917,604.496 262.999,604.496C265.004,604.496 266.006,603.391 266.469,602.003L268.551,602.723Z" style="fill:rgb(6,38,77);fill-rule:nonzero;"/>
            </g>
            <g transform="matrix(2.66667,0,0,2.66667,-0.4804,-1449.93)">
                <path d="M278.215,600.95L278.215,600.384L274.437,600.95C273.409,601.104 272.638,601.695 272.638,602.8C272.638,603.725 273.409,604.599 274.642,604.599C276.621,604.599 278.215,603.648 278.215,600.95ZM273.923,599.176L277.264,598.688C278.009,598.585 278.215,598.2 278.215,597.763C278.215,596.555 277.418,595.552 275.542,595.552C273.846,595.552 272.895,596.606 272.741,598.045L270.428,597.506C270.685,595.141 272.818,593.496 275.491,593.496C279.192,593.496 280.631,595.604 280.631,598.02L280.631,604.214C280.631,605.293 280.734,605.936 280.785,606.244L278.42,606.244C278.369,605.936 278.292,605.473 278.292,604.573C277.752,605.447 276.518,606.629 274.308,606.629C271.79,606.629 270.171,604.882 270.171,602.928C270.171,600.718 271.79,599.485 273.923,599.176" style="fill:rgb(6,38,77);fill-rule:nonzero;"/>
            </g>
            <g transform="matrix(2.66667,0,0,2.66667,-0.4804,-1450.47)">
                <path d="M290.474,596.528C290.114,596.477 289.755,596.451 289.421,596.451C287.39,596.451 286.028,597.531 286.028,600.255L286.028,606.449L283.612,606.449L283.612,594.087L285.977,594.087L285.977,596.246C286.876,594.344 288.418,593.881 289.678,593.881C290.012,593.881 290.346,593.933 290.474,593.958L290.474,596.528Z" style="fill:rgb(6,38,77);fill-rule:nonzero;"/>
            </g>
            <g transform="matrix(2.66667,0,0,2.66667,-0.4804,-1449.93)">
                <path d="M293.585,600.05C293.585,602.877 295.358,604.393 297.363,604.393C299.676,604.393 300.524,602.826 300.807,601.849L302.94,602.774C302.349,604.548 300.575,606.629 297.363,606.629C293.765,606.629 291.117,603.802 291.117,600.05C291.117,596.195 293.816,593.496 297.337,593.496C300.627,593.496 302.323,595.552 302.837,597.428L300.652,598.354C300.344,597.146 299.444,595.732 297.337,595.732C295.384,595.732 293.585,597.172 293.585,600.05" style="fill:rgb(6,38,77);fill-rule:nonzero;"/>
            </g>
            <g transform="matrix(2.66667,0,0,2.66667,-0.4804,-1466.58)">
                <path d="M307.412,612.489L304.996,612.489L304.996,593.881L307.412,593.881L307.412,601.566C308.312,600.255 309.751,599.767 311.165,599.767C314.12,599.767 315.585,601.9 315.585,604.65L315.585,612.489L313.169,612.489L313.169,605.061C313.169,603.339 312.449,601.952 310.291,601.952C308.44,601.952 307.464,603.391 307.412,605.216L307.412,612.489Z" style="fill:rgb(6,38,77);fill-rule:nonzero;"/>
            </g>
        </g>
    </g>
</svg>
